<svg width="57" height="70" viewBox="0 0 57 70" fill="none" xmlns="http://www.w3.org/2000/svg">
<path d="M28.5952 69.316L57 47.8305V36.9477H51.0772V45.065L28.6064 62.0273L5.47496 44.5612V36.9365H0V47.8193L28.5952 69.3048V69.316Z" fill="white"/>
<path d="M0 10.9387L28.4048 0L56.8097 10.9387V21.4296H51.1668V15.1485L28.4048 6.38185L5.6429 15.1597V21.4408H0V10.9387Z" fill="white"/>
<path d="M31.9974 10.0759H25.1029V53.7412H31.9974V10.0759Z" fill="url(#paint0_linear_436_1219)"/>
<path d="M22.8047 22.8116H15.9102V41.9152H22.8047V22.8116Z" fill="url(#paint1_linear_436_1219)"/>
<path d="M43.4883 23.7213H50.3828V36.0022H43.4883V23.7213Z" fill="url(#paint2_linear_436_1219)"/>
<path d="M13.612 20.0826H6.71753V39.641H13.612V20.0826Z" fill="url(#paint3_linear_436_1219)"/>
<path d="M34.2956 16.8986H41.1901V47.8282H34.2956V16.8986Z" fill="url(#paint4_linear_436_1219)"/>
<defs>
<linearGradient id="paint0_linear_436_1219" x1="6.71753" y1="26.6258" x2="50.3828" y2="26.6258" gradientUnits="userSpaceOnUse">
<stop stop-color="#5726C7"/>
<stop offset="1" stop-color="#71FFD6"/>
</linearGradient>
<linearGradient id="paint1_linear_436_1219" x1="6.71753" y1="26.6258" x2="50.3828" y2="26.6258" gradientUnits="userSpaceOnUse">
<stop stop-color="#5726C7"/>
<stop offset="1" stop-color="#71FFD6"/>
</linearGradient>
<linearGradient id="paint2_linear_436_1219" x1="6.71753" y1="26.6258" x2="50.3828" y2="26.6258" gradientUnits="userSpaceOnUse">
<stop stop-color="#5726C7"/>
<stop offset="1" stop-color="#71FFD6"/>
</linearGradient>
<linearGradient id="paint3_linear_436_1219" x1="6.71753" y1="26.6258" x2="50.3828" y2="26.6258" gradientUnits="userSpaceOnUse">
<stop stop-color="#5726C7"/>
<stop offset="1" stop-color="#71FFD6"/>
</linearGradient>
<linearGradient id="paint4_linear_436_1219" x1="6.71753" y1="26.6258" x2="50.3828" y2="26.6258" gradientUnits="userSpaceOnUse">
<stop stop-color="#5726C7"/>
<stop offset="1" stop-color="#71FFD6"/>
</linearGradient>
</defs>
</svg>
