<svg width="16" height="19" viewBox="0 0 16 19" fill="none" xmlns="http://www.w3.org/2000/svg">
<path d="M9.125 10.4805L10.9883 10.7617C11.3047 10.7969 11.4102 11.1836 11.1992 11.3945L9.86328 12.6953L10.1797 14.5234C10.2148 14.8398 9.89844 15.0508 9.65234 14.9102L8 14.0312L6.3125 14.9102C6.06641 15.0508 5.75 14.8398 5.78516 14.5234L6.10156 12.6953L4.76562 11.3945C4.55469 11.1836 4.66016 10.7969 4.97656 10.7617L6.83984 10.4805L7.64844 8.79297C7.78906 8.54688 8.17578 8.54688 8.31641 8.79297L9.125 10.4805ZM4.625 0.25C5.08203 0.25 5.46875 0.636719 5.46875 1.09375V2.5H10.5312V1.09375C10.5312 0.636719 10.8828 0.25 11.375 0.25C11.832 0.25 12.2188 0.636719 12.2188 1.09375V2.5H13.625C14.8555 2.5 15.875 3.51953 15.875 4.75V16C15.875 17.2656 14.8555 18.25 13.625 18.25H2.375C1.10938 18.25 0.125 17.2656 0.125 16V4.75C0.125 3.51953 1.10938 2.5 2.375 2.5H3.78125V1.09375C3.78125 0.636719 4.13281 0.25 4.625 0.25ZM14.1875 7H1.8125V16C1.8125 16.3164 2.05859 16.5625 2.375 16.5625H13.625C13.9062 16.5625 14.1875 16.3164 14.1875 16V7Z" fill="#3D3D3D"/>
</svg>
